<mxfile host="app.diagrams.net" modified="2022-05-31T19:57:54.117Z" agent="5.0 (Windows NT 10.0; Win64; x64) AppleWebKit/537.36 (KHTML, like Gecko) Chrome/102.0.5005.61 Safari/537.36" etag="WOKI4Je6SrMOz4_PWiR9" version="18.1.3" type="github">
  <diagram id="kgpKYQtTHZ0yAKxKKP6v" name="Page-1">
    <mxGraphModel dx="1270" dy="308" grid="1" gridSize="10" guides="1" tooltips="1" connect="1" arrows="1" fold="1" page="1" pageScale="1" pageWidth="850" pageHeight="1100" math="0" shadow="0">
      <root>
        <mxCell id="0" />
        <mxCell id="1" parent="0" />
        <mxCell id="3nuBFxr9cyL0pnOWT2aG-1" value=":FacilitySelection.jsp" style="shape=umlLifeline;perimeter=lifelinePerimeter;container=1;collapsible=0;recursiveResize=0;rounded=0;shadow=0;strokeWidth=1;" parent="1" vertex="1">
          <mxGeometry x="80" y="80" width="120" height="300" as="geometry" />
        </mxCell>
        <mxCell id="3nuBFxr9cyL0pnOWT2aG-2" value="" style="points=[];perimeter=orthogonalPerimeter;rounded=0;shadow=0;strokeWidth=1;" parent="3nuBFxr9cyL0pnOWT2aG-1" vertex="1">
          <mxGeometry x="55" y="65" width="10" height="35" as="geometry" />
        </mxCell>
        <mxCell id="3nuBFxr9cyL0pnOWT2aG-5" value=":&#39;Role&#39; Servlet" style="shape=umlLifeline;perimeter=lifelinePerimeter;container=1;collapsible=0;recursiveResize=0;rounded=0;shadow=0;strokeWidth=1;" parent="1" vertex="1">
          <mxGeometry x="330" y="80" width="140" height="300" as="geometry" />
        </mxCell>
        <mxCell id="3nuBFxr9cyL0pnOWT2aG-6" value="" style="points=[];perimeter=orthogonalPerimeter;rounded=0;shadow=0;strokeWidth=1;" parent="3nuBFxr9cyL0pnOWT2aG-5" vertex="1">
          <mxGeometry x="65" y="60" width="10" height="50" as="geometry" />
        </mxCell>
        <mxCell id="3nuBFxr9cyL0pnOWT2aG-7" value="return" style="verticalAlign=bottom;endArrow=open;dashed=1;endSize=8;shadow=0;strokeWidth=1;entryX=0.5;entryY=0.4;entryDx=0;entryDy=0;entryPerimeter=0;exitX=0.5;exitY=0.4;exitDx=0;exitDy=0;exitPerimeter=0;" parent="1" source="3nuBFxr9cyL0pnOWT2aG-5" target="3nuBFxr9cyL0pnOWT2aG-1" edge="1">
          <mxGeometry x="-0.0458" relative="1" as="geometry">
            <mxPoint x="275" y="236" as="targetPoint" />
            <Array as="points">
              <mxPoint x="230" y="200" />
            </Array>
            <mxPoint as="offset" />
            <mxPoint x="370" y="200" as="sourcePoint" />
          </mxGeometry>
        </mxCell>
        <mxCell id="3nuBFxr9cyL0pnOWT2aG-8" value="form action=&quot;FacilitySelectionServlet&quot; &#xa;- username, facility ID" style="verticalAlign=bottom;endArrow=block;shadow=0;strokeWidth=1;fontSize=8;" parent="1" source="3nuBFxr9cyL0pnOWT2aG-2" target="3nuBFxr9cyL0pnOWT2aG-5" edge="1">
          <mxGeometry relative="1" as="geometry">
            <mxPoint x="275" y="160" as="sourcePoint" />
          </mxGeometry>
        </mxCell>
        <mxCell id="nqSBcZyy9lZg2qwpTynM-3" value=":LoginServlet" style="shape=umlLifeline;perimeter=lifelinePerimeter;container=1;collapsible=0;recursiveResize=0;rounded=0;shadow=0;strokeWidth=1;" parent="1" vertex="1">
          <mxGeometry x="-150" y="80" width="120" height="300" as="geometry" />
        </mxCell>
        <mxCell id="nqSBcZyy9lZg2qwpTynM-4" value="" style="points=[];perimeter=orthogonalPerimeter;rounded=0;shadow=0;strokeWidth=1;" parent="nqSBcZyy9lZg2qwpTynM-3" vertex="1">
          <mxGeometry x="55" y="65" width="10" height="35" as="geometry" />
        </mxCell>
        <mxCell id="nqSBcZyy9lZg2qwpTynM-5" value="forward username, list of authorized facility IDs" style="verticalAlign=bottom;endArrow=block;entryX=0.04;entryY=0.443;shadow=0;strokeWidth=1;fontSize=8;entryDx=0;entryDy=0;entryPerimeter=0;exitX=1;exitY=0.429;exitDx=0;exitDy=0;exitPerimeter=0;" parent="1" source="nqSBcZyy9lZg2qwpTynM-4" target="3nuBFxr9cyL0pnOWT2aG-2" edge="1">
          <mxGeometry x="-0.0472" relative="1" as="geometry">
            <mxPoint x="-85" y="170.0000000000001" as="sourcePoint" />
            <mxPoint x="135" y="170.0000000000001" as="targetPoint" />
            <mxPoint as="offset" />
          </mxGeometry>
        </mxCell>
        <mxCell id="3E_2wf93eygL7nWRhB4J-1" value=":&#39;Role&#39;.jsp" style="shape=umlLifeline;perimeter=lifelinePerimeter;container=1;collapsible=0;recursiveResize=0;rounded=0;shadow=0;strokeWidth=1;" vertex="1" parent="1">
          <mxGeometry x="600" y="80" width="140" height="300" as="geometry" />
        </mxCell>
        <mxCell id="3E_2wf93eygL7nWRhB4J-2" value="" style="points=[];perimeter=orthogonalPerimeter;rounded=0;shadow=0;strokeWidth=1;" vertex="1" parent="3E_2wf93eygL7nWRhB4J-1">
          <mxGeometry x="65" y="60" width="10" height="160" as="geometry" />
        </mxCell>
        <mxCell id="3E_2wf93eygL7nWRhB4J-4" value="forward username, facility ID" style="verticalAlign=bottom;endArrow=block;shadow=0;strokeWidth=1;fontSize=8;entryX=0.16;entryY=0.133;entryDx=0;entryDy=0;entryPerimeter=0;" edge="1" parent="3E_2wf93eygL7nWRhB4J-1" target="3E_2wf93eygL7nWRhB4J-2">
          <mxGeometry x="0.0322" y="2" relative="1" as="geometry">
            <mxPoint x="-195" y="82.16000000000005" as="sourcePoint" />
            <mxPoint x="59.50000000000023" y="82.16000000000005" as="targetPoint" />
            <mxPoint as="offset" />
          </mxGeometry>
        </mxCell>
      </root>
    </mxGraphModel>
  </diagram>
</mxfile>
